<svg width="255" height="255" viewBox="0 0 255 255" fill="none" xmlns="http://www.w3.org/2000/svg">
<circle cx="127.5" cy="127.5" r="127.5" fill="white"/>
<rect width="255" height="255" fill="white"/>
<path d="M104.432 51.2549C118.617 51.2549 123.968 56.8622 123.968 68.2466V73.1742C123.968 78.6965 121.845 82.9445 117.937 85.833C122.354 88.7216 124.478 93.0545 124.478 98.7468V104.524C124.478 115.399 119.976 122.535 106.555 122.535H45.0579C43.0193 122.535 42 121.516 42 119.477V54.3134C42 52.2744 43.0193 51.2549 45.0579 51.2549H104.432ZM60.5172 79.9709H99.9299C104.517 79.9709 106.131 78.4416 106.131 75.3831V72.4096C106.131 69.2661 104.432 67.8218 100.44 67.8218H61.7913C60.9419 67.8218 60.6021 68.3316 60.6021 69.2661V79.9709H60.5172ZM60.5172 93.0545V104.609C60.5172 105.628 60.9419 106.053 61.7063 106.053H100.524C104.517 106.053 106.216 104.609 106.216 101.38V98.1521C106.216 94.9236 104.517 93.1395 99.9299 93.1395H60.5172V93.0545Z" fill="#1A25EE"/>
<path d="M208.994 51.2549C210.863 51.2549 211.627 52.1894 211.627 53.8886V65.2731C211.627 67.1421 210.778 67.9917 208.994 67.9917H164.4C155.651 67.9917 153.273 70.2007 153.273 79.2063H208.4C210.268 79.2063 211.033 80.0559 211.033 81.84V91.1854C211.033 93.0545 210.183 93.8192 208.4 93.8192H153.273C153.273 103.419 155.481 105.713 164.4 105.713H208.994C210.863 105.713 211.627 106.563 211.627 108.347V119.732C211.627 121.431 210.778 122.365 208.994 122.365H164.06C143.165 122.365 135.265 115.059 135.265 95.4334V77.9319C135.265 58.3914 143.25 51 164.06 51H208.994V51.2549Z" fill="#1A25EE"/>
<path d="M43.6988 132.9H110.887C118.022 132.9 123.798 138.677 123.798 145.814V203.331C123.798 204.265 123.034 205.03 122.099 205.03H43.6988C42.7645 205.03 42 204.265 42 203.331V134.514C42 133.58 42.7645 132.815 43.6988 132.815V132.9Z" fill="#1A25EE"/>
<path d="M210.099 204.945H137.134C136.285 204.945 135.52 204.18 135.52 203.331V149.722C135.52 140.376 143.08 132.815 152.423 132.815H210.099C210.948 132.815 211.712 133.58 211.712 134.429V203.331C211.712 204.18 210.948 204.945 210.099 204.945Z" fill="#1A25EE"/>
<path d="M104.432 51.2549C118.617 51.2549 123.968 56.8622 123.968 68.2466V73.1742C123.968 78.6965 121.845 82.9445 117.937 85.833C122.354 88.7216 124.478 93.0545 124.478 98.7468V104.524C124.478 115.399 119.976 122.535 106.555 122.535H45.0579C43.0193 122.535 42 121.516 42 119.477V54.3134C42 52.2744 43.0193 51.2549 45.0579 51.2549H104.432ZM60.5172 79.9709H99.9299C104.517 79.9709 106.131 78.4416 106.131 75.3831V72.4096C106.131 69.2661 104.432 67.8218 100.44 67.8218H61.7913C60.9419 67.8218 60.6021 68.3316 60.6021 69.2661V79.9709H60.5172ZM60.5172 93.0545V104.609C60.5172 105.628 60.9419 106.053 61.7063 106.053H100.524C104.517 106.053 106.216 104.609 106.216 101.38V98.1521C106.216 94.9236 104.517 93.1395 99.9299 93.1395H60.5172V93.0545Z" fill="#2647FF"/>
<path d="M208.994 51.2549C210.863 51.2549 211.627 52.1894 211.627 53.8886V65.2731C211.627 67.1421 210.778 67.9917 208.994 67.9917H164.4C155.651 67.9917 153.273 70.2007 153.273 79.2063H208.4C210.268 79.2063 211.033 80.0559 211.033 81.84V91.1854C211.033 93.0545 210.183 93.8192 208.4 93.8192H153.273C153.273 103.419 155.481 105.713 164.4 105.713H208.994C210.863 105.713 211.627 106.563 211.627 108.347V119.732C211.627 121.431 210.778 122.365 208.994 122.365H164.06C143.165 122.365 135.265 115.059 135.265 95.4334V77.9319C135.265 58.3914 143.25 51 164.06 51H208.994V51.2549Z" fill="#2647FF"/>
<path d="M43.6988 132.9H110.887C118.022 132.9 123.798 138.677 123.798 145.814V203.331C123.798 204.265 123.034 205.03 122.099 205.03H43.6988C42.7645 205.03 42 204.265 42 203.331V134.514C42 133.58 42.7645 132.815 43.6988 132.815V132.9Z" fill="#2647FF"/>
<path d="M210.099 204.945H137.134C136.285 204.945 135.52 204.18 135.52 203.331V149.722C135.52 140.376 143.08 132.815 152.423 132.815H210.099C210.948 132.815 211.712 133.58 211.712 134.429V203.331C211.712 204.18 210.948 204.945 210.099 204.945Z" fill="#2647FF"/>
</svg>
