<svg width="382" height="161" viewBox="0 0 382 161" fill="none" xmlns="http://www.w3.org/2000/svg">
<path d="M62.4317 6.62677C76.6169 6.62677 81.9682 12.234 81.9682 23.6185V28.5461C81.9682 34.0684 79.8447 38.3163 75.9374 41.2049C80.3543 44.0935 82.4779 48.4264 82.4779 54.1187V59.8958C82.4779 70.7705 77.976 77.9071 64.5553 77.9071H3.05788C1.01929 77.9071 0 76.8876 0 74.8486V9.68528C0 7.64627 1.01929 6.62677 3.05788 6.62677H62.4317ZM18.5172 35.3428H57.9299C62.5167 35.3428 64.1306 33.8135 64.1306 30.755V27.7815C64.1306 24.638 62.4317 23.1937 58.4395 23.1937H19.7913C18.9419 23.1937 18.6021 23.7035 18.6021 24.638V35.3428H18.5172ZM18.5172 48.4264V59.9808C18.5172 61.0003 18.9419 61.4251 19.7063 61.4251H58.5245C62.5167 61.4251 64.2155 59.9808 64.2155 56.7524V53.5239C64.2155 50.2955 62.5167 48.5114 57.9299 48.5114H18.5172V48.4264Z" fill="url(#paint0_linear_16_102)"/>
<path d="M166.994 6.62676C168.863 6.62676 169.627 7.56131 169.627 9.26048V20.6449C169.627 22.514 168.778 23.3636 166.994 23.3636H122.4C113.651 23.3636 111.273 25.5725 111.273 34.5782H166.4C168.268 34.5782 169.033 35.4277 169.033 37.2119V46.5573C169.033 48.4264 168.183 49.191 166.4 49.191H111.273C111.273 58.7914 113.481 61.0853 122.4 61.0853H166.994C168.863 61.0853 169.627 61.9348 169.627 63.719V75.1034C169.627 76.8026 168.778 77.7371 166.994 77.7371H122.06C101.165 77.7371 93.2654 70.4307 93.2654 50.8053V33.3038C93.2654 13.7633 101.25 6.37189 122.06 6.37189H166.994V6.62676Z" fill="url(#paint1_linear_16_102)"/>
<path d="M246.669 6.62677C262.638 6.62677 269.009 13.9332 269.009 27.6965V35.9375C269.009 49.7008 262.723 57.0072 246.669 57.0072H207.002V75.2733C207.002 76.9725 206.067 77.9071 204.368 77.9071H191.118C189.419 77.9071 188.484 76.9725 188.484 75.2733V9.68528C188.484 7.64627 189.504 6.62677 191.542 6.62677H246.669ZM207.002 41.12H242.932C248.538 41.12 250.406 38.9111 250.406 33.9835V30.2453C250.406 25.4876 248.538 23.1937 242.932 23.1937H208.191C207.341 23.1937 207.002 23.6185 207.002 24.3831V41.12Z" fill="url(#paint2_linear_16_102)"/>
<path d="M292.792 0C294.491 0 295.425 0.934545 295.425 2.63372V12.6588C295.425 14.5279 294.491 15.2926 292.792 15.2926H280.9C279.202 15.2926 278.267 14.443 278.267 12.6588V2.63372C278.267 0.934545 279.202 0 280.9 0H292.792ZM292.707 21.3246C294.576 21.3246 295.425 22.1742 295.425 23.9583V75.2734C295.425 76.9725 294.491 77.9071 292.707 77.9071H280.9C279.032 77.9071 278.267 76.9725 278.267 75.2734V23.9583C278.267 22.0892 279.117 21.3246 280.9 21.3246H292.707Z" fill="url(#paint3_linear_16_102)"/>
<path d="M322.522 21.3246C324.39 21.3246 325.155 21.7494 326.004 22.6839L343.502 39.5907L361.34 22.6839C362.189 21.7494 362.953 21.3246 364.822 21.3246H378.328C380.451 21.3246 380.791 23.1937 379.687 24.3831L353.78 49.3609L380.451 74.9335C381.556 76.0379 381.386 77.992 379.092 77.992H363.803C362.104 77.992 361.255 77.5672 360.32 76.6327L341.209 58.2816L321.842 76.6327C320.993 77.5672 320.228 77.992 318.359 77.992H304.769C302.645 77.992 302.306 76.0379 303.41 74.9335L330.931 48.4264L305.873 24.3831C304.854 23.1937 305.024 21.3246 307.232 21.3246H322.437H322.522Z" fill="url(#paint4_linear_16_102)"/>
<path d="M1.69882 88.272H68.8873C76.0223 88.272 81.7983 94.0492 81.7983 101.186V158.703C81.7983 159.637 81.0338 160.402 80.0995 160.402H1.69882C0.76447 160.402 0 159.637 0 158.703V89.8862C0 88.9517 0.76447 88.1871 1.69882 88.1871V88.272Z" fill="url(#paint5_linear_16_102)"/>
<path d="M168.099 160.317H95.1341C94.2847 160.317 93.5202 159.552 93.5202 158.703V105.094C93.5202 95.7484 101.08 88.1871 110.423 88.1871L168.099 88.1871C168.948 88.1871 169.712 88.9517 169.712 89.8013V158.703C169.712 159.552 168.948 160.317 168.099 160.317Z" fill="url(#paint6_linear_16_102)"/>
<defs>
<linearGradient id="paint0_linear_16_102" x1="41.2389" y1="6.62677" x2="49.732" y2="98.3268" gradientUnits="userSpaceOnUse">
<stop stop-color="#1A25EE"/>
<stop offset="1" stop-color="#0F1588"/>
</linearGradient>
<linearGradient id="paint1_linear_16_102" x1="131.446" y1="6.37189" x2="140.628" y2="98.0491" gradientUnits="userSpaceOnUse">
<stop stop-color="#1A25EE"/>
<stop offset="1" stop-color="#0F1588"/>
</linearGradient>
<linearGradient id="paint2_linear_16_102" x1="278.368" y1="23.5347" x2="182.098" y2="42.8128" gradientUnits="userSpaceOnUse">
<stop stop-color="#1A25EE"/>
<stop offset="1" stop-color="#0F1588"/>
</linearGradient>
<linearGradient id="paint3_linear_16_102" x1="297.419" y1="18.4799" x2="276.116" y2="19.3115" gradientUnits="userSpaceOnUse">
<stop stop-color="#1A25EE"/>
<stop offset="1" stop-color="#0F1588"/>
</linearGradient>
<linearGradient id="paint4_linear_16_102" x1="390.214" y1="34.7663" x2="298.342" y2="57.2738" gradientUnits="userSpaceOnUse">
<stop stop-color="#1A25EE"/>
<stop offset="1" stop-color="#0F1588"/>
</linearGradient>
<linearGradient id="paint5_linear_16_102" x1="36" y1="149" x2="82" y2="88" gradientUnits="userSpaceOnUse">
<stop stop-color="#1A25EE"/>
<stop offset="1" stop-color="#0F1588"/>
</linearGradient>
<linearGradient id="paint6_linear_16_102" x1="150" y1="149.5" x2="103" y2="88" gradientUnits="userSpaceOnUse">
<stop stop-color="#1A25EE"/>
<stop offset="1" stop-color="#0F1588"/>
</linearGradient>
</defs>
</svg>
